<svg width="23" height="30" viewBox="0 0 23 30" fill="none" xmlns="http://www.w3.org/2000/svg">
<path d="M0 20.625C0 23.1114 0.98772 25.496 2.74587 27.2541C4.50403 29.0123 6.8886 30 9.375 30H13.125C14.3561 30 15.5752 29.7575 16.7127 29.2864C17.8501 28.8152 18.8836 28.1247 19.7541 27.2541C20.6247 26.3836 21.3152 25.3501 21.7864 24.2127C22.2575 23.0752 22.5 21.8561 22.5 20.625V13.125H0V20.625ZM10.3125 0H9.375C6.8886 0 4.50403 0.98772 2.74587 2.74587C0.98772 4.50403 0 6.8886 0 9.375L0 11.25H10.3125V0ZM13.125 0H12.1875V11.25H22.5V9.375C22.5 8.14386 22.2575 6.92477 21.7864 5.78734C21.3152 4.64992 20.6247 3.61642 19.7541 2.74587C18.8836 1.87532 17.8501 1.18477 16.7127 0.713629C15.5752 0.242492 14.3561 0 13.125 0V0Z" fill="#3DB5FA"/>
</svg>
