<svg width="444" height="695" viewBox="0 0 444 695" fill="none" xmlns="http://www.w3.org/2000/svg">
<path d="M169.922 650.391C158.203 662.109 145.996 672.363 133.301 681.152C121.094 689.941 107.91 694.336 93.75 694.336C83.9844 694.336 74.2188 692.139 64.4531 687.744C55.1758 682.861 44.9219 674.805 33.6914 663.574C20.9961 650.879 12.207 639.404 7.32422 629.15C2.44141 618.896 0 608.887 0 599.121C0 584.961 4.39453 572.021 13.1836 560.303C21.9727 548.096 32.2266 536.133 43.9453 524.414L222.656 348.633L42.4805 169.922C31.25 158.691 21.2402 146.973 12.4512 134.766C4.15039 122.07 0 108.398 0 93.75C0 83.9844 2.19727 74.4629 6.5918 65.1855C11.4746 55.4199 19.5312 44.9219 30.7617 33.6914C42.4805 21.9727 53.4668 13.4277 63.7207 8.05664C73.9746 2.68555 83.9844 0 93.75 0C108.398 0 121.582 4.63867 133.301 13.916C145.508 22.7051 157.227 32.7148 168.457 43.9453L398.438 272.461C411.133 285.156 421.875 297.363 430.664 309.082C439.453 320.312 443.848 333.008 443.848 347.168C443.848 354.98 442.383 362.305 439.453 369.141C437.012 375.977 433.594 382.568 429.199 388.916C424.805 395.264 419.922 401.123 414.551 406.494C409.668 411.865 404.785 416.992 399.902 421.875L169.922 650.391Z" fill="white" fill-opacity="0.03"/>
</svg>
