<svg width="13" height="10" viewBox="0 0 13 10" fill="none" xmlns="http://www.w3.org/2000/svg">
<path d="M12.7537 3.21953C12.8527 3.14082 13 3.21445 13 3.33887V8.53125C13 9.2041 12.4541 9.75 11.7812 9.75H1.21875C0.545898 9.75 0 9.2041 0 8.53125V3.34141C0 3.21445 0.144727 3.14336 0.246289 3.22207C0.815039 3.66387 1.56914 4.225 4.15898 6.10645C4.69473 6.49746 5.59863 7.32012 6.5 7.31504C7.40645 7.32266 8.32812 6.48223 8.84355 6.10645C11.4334 4.225 12.185 3.66133 12.7537 3.21953ZM6.5 6.5C7.08906 6.51016 7.93711 5.75859 8.36367 5.44883C11.733 3.00371 11.9895 2.79043 12.7664 2.18105C12.9137 2.0668 13 1.88906 13 1.70117V1.21875C13 0.545898 12.4541 0 11.7812 0H1.21875C0.545898 0 0 0.545898 0 1.21875V1.70117C0 1.88906 0.0863281 2.06426 0.233594 2.18105C1.01055 2.78789 1.26699 3.00371 4.63633 5.44883C5.06289 5.75859 5.91094 6.51016 6.5 6.5Z" fill="white"/>
</svg>
