<svg width="447" height="695" viewBox="0 0 447 695" fill="none" xmlns="http://www.w3.org/2000/svg">
<path d="M271.106 44.6523C282.715 32.8255 294.827 22.4588 307.44 13.5525C319.565 4.65062 332.707 0.134063 346.867 0.00279744C356.632 -0.0877304 366.418 2.01891 376.224 6.32273C385.546 11.1193 395.874 19.0806 407.208 30.2064C420.021 42.7835 428.916 54.1762 433.893 64.3844C438.871 74.5926 441.405 84.5793 441.496 94.3445C441.627 108.504 437.353 121.484 428.672 133.283C419.997 145.571 409.854 157.629 398.245 169.456L221.171 346.886L402.996 523.919C414.33 535.045 424.448 546.67 433.35 558.795C441.768 571.413 446.045 585.046 446.18 599.694C446.271 609.459 444.162 619 439.854 628.318C435.062 638.129 427.103 648.701 415.977 660.035C404.367 671.862 393.461 680.508 383.257 685.974C373.053 691.44 363.069 694.218 353.304 694.309C338.656 694.445 325.43 689.928 313.625 680.76C301.337 672.085 289.526 662.184 278.192 651.058L46.1034 424.684C33.291 412.107 22.4361 400 13.5388 388.363C4.64597 377.215 0.133943 364.561 0.00267727 350.401C-0.069745 342.589 1.32714 335.252 4.19333 328.389C6.57126 321.531 9.92798 314.907 14.2635 308.519C18.599 302.131 23.4273 296.227 28.7483 290.806C33.5811 285.39 38.4162 280.218 43.2536 275.29L271.106 44.6523Z" fill="white" fill-opacity="0.03"/>
</svg>
